<?xml version="1.0" encoding="utf-8"?><svg width="50" height="50" fill="none" xmlns="http://www.w3.org/2000/svg" viewBox="0 0 50 50"><rect width="50" height="50" rx="4" fill="#E5EEEB"/><g clip-path="url(#eclip0_1_35)" fill="#45766A"><path d="M19.035 31.928h3.643v.302h-3.643v-.302zm16.004 0H43v.302h-7.96v-.302zm-.194-11.05c.331.456.599.857.812 1.213.069-1.146.267-1.845.464-2.247V23c.102.26.175.532.18.818 0 .204-.04.39-.12.558a1.058 1.058 0 01-.06.11v5.902a.87.87 0 001.738 0v-6.347h.326v6.346a.87.87 0 101.739 0v-7.1c-1.983-2.13-3.34-4.48-3.667-5.072-.062.021-.128.048-.196.082-.378.188-.786.598-1.071 1.325-.12.303-.224.663-.304 1.094a.8.8 0 01.159.162zm-.336 2.459l.002.06.032.006a5.215 5.215 0 00-.034-.066z"/><path d="M37.438 19.693a26.528 26.528 0 002.486 3.238v-3.085c.041.085.083.183.125.297.198.55.365 1.451.364 2.857 0 .388-.012.814-.04 1.282a.563.563 0 101.123.066c.027-.449.041-.898.042-1.348-.003-2.121-.342-3.296-.804-4.002-.23-.35-.501-.575-.75-.7a1.335 1.335 0 00-.594-.15h-.002l-.008-.001h-2.716l-.01.001c-.051 0-.102.004-.152.011.156.279.476.832.936 1.534zM38.022 17.746a1.582 1.582 0 100-3.164 1.582 1.582 0 000 3.164zM11.765 25.877v14.145a1.495 1.495 0 102.992 0v-10.92h.56v10.92a1.495 1.495 0 102.992 0v-18.14c.08.167.152.338.215.513.34.945.628 2.495.627 4.916 0 .667-.022 1.4-.069 2.204a.968.968 0 001.933.113c.049-.839.071-1.609.071-2.317-.005-3.651-.588-5.672-1.383-6.887-.397-.603-.862-.99-1.292-1.204a2.305 2.305 0 00-1-.258l-.037-.002h-.568l-.297 2.324-1.18-1.42.816-.904h-2.216l.816.903-1.18 1.421-.297-2.324H12.7a.922.922 0 00-.107.006c-.428.006-.868.03-1.295.042-.12.004-.24.007-.358.006-.691.008-1.29-.09-1.568-.263a.718.718 0 01-.296-.298c-.072-.135-.14-.355-.14-.729-.001-.403.085-.975.313-1.722a.968.968 0 00-.644-1.207c-.007-.003-.013-.004-.02-.005v-2.522c.265-.424.94-1.182 2.117-.48 3.192 1.903 3.387-2.54 3.387-2.54s-1.673.928-2.883-.16c-1.024-.922-2.264-.4-2.62-.217v-.389h-.444v6.288a.968.968 0 00-.745.668c-.265.875-.396 1.62-.397 2.286 0 .61.116 1.164.366 1.637.376.718 1.042 1.149 1.676 1.346.642.205 1.288.24 1.898.243l.1-.001c.25-.003.494-.01.725-.02v4.948z"/><path d="M15.48 18.234a2.722 2.722 0 10-.887-5.371 2.722 2.722 0 00.888 5.37zm13.743 5.883c-.122-1.217-.395-1.992-.735-2.512-.23-.35-.5-.575-.75-.7a1.332 1.332 0 00-.594-.15h-.494a10.662 10.662 0 01.24 3.327v1.291h-2.227v-1.29a10.658 10.658 0 01.24-3.33h-.485l-.01.002c-.124 0-.344.024-.593.15-.378.188-.786.598-1.07 1.325-.29.73-.483 1.785-.485 3.378 0 .412.014.86.043 1.347a.563.563 0 00.56.53l.034-.002a.562.562 0 00.529-.594c-.026-.427-.04-.854-.04-1.281-.003-1.703.245-2.658.49-3.157v10.545a.87.87 0 101.738 0v-6.347h.326v6.347a.87.87 0 001.738 0V22.453c.042.085.084.183.125.298.199.55.365 1.45.365 2.857 0 .387-.013.814-.04 1.281a.56.56 0 00.247.497c.056-1.048.213-1.89.476-2.556.112-.286.24-.52.372-.713z"/><path d="M24.834 23.188c0 .322.015.588.031.78h1.823a10.449 10.449 0 00-.255-3.213H25.12c-.225.93-.286 1.792-.286 2.433zM25.776 20.354a1.582 1.582 0 100-3.164 1.582 1.582 0 000 3.164zM25.775 25.104a.395.395 0 100-.791.395.395 0 000 .79zM31.288 20.625h2.162a1.58 1.58 0 00-2.924.835 1.582 1.582 0 002.956.782h-2.194v-1.617z"/><path d="M32.636 21.867a.434.434 0 100-.867.434.434 0 000 .867z"/><path d="M36.059 23.823c-.005-.361-.13-.706-.354-1.15-.226-.442-.566-.978-1.056-1.652a.563.563 0 00-.91.661c.469.644.78 1.14.965 1.503.119.227.18.403.21.514a3.841 3.841 0 01-.665-.113c-.134-.03-.268-.063-.398-.09a2.326 2.326 0 00-.33-.048c-.017-.002-.036-.005-.054-.005H30.74c-.125 0-.343.025-.593.15-.378.188-.786.599-1.071 1.325-.289.73-.483 1.785-.483 3.378 0 .412.013.86.041 1.347a.562.562 0 101.123-.065c-.025-.427-.039-.854-.04-1.282-.002-1.703.246-2.657.49-3.157v10.545a.87.87 0 101.739 0v-6.346h.325v6.346a.87.87 0 001.74 0V24.686l.204.045c.229.048.472.092.73.093.216-.003.461-.025.713-.193a.904.904 0 00.305-.357 1.05 1.05 0 00.096-.451z"/></g><defs><clipPath id="eclip0_1_35"><path fill="#fff" transform="translate(7 7)" d="M0 0h36v36H0z"/></clipPath></defs></svg>