<?xml version="1.0" encoding="utf-8"?><svg width="32" height="32" xmlns="http://www.w3.org/2000/svg" viewBox="0 0 32 32"><path d="M12.053 28.72c1.28.387 2.574.613 3.947.613A13.333 13.333 0 102.667 16c0 5.667 3.56 10.533 8.586 12.453-.12-1.04-.24-2.76 0-3.946l1.534-6.587s-.387-.773-.387-2c0-1.84 1.147-3.213 2.453-3.213 1.147 0 1.68.84 1.68 1.92 0 1.146-.76 2.786-1.146 4.36-.227 1.306.693 2.453 2.026 2.453 2.374 0 4.214-2.533 4.214-6.107 0-3.2-2.294-5.386-5.587-5.386-3.76 0-5.973 2.8-5.973 5.746 0 1.147.373 2.307.986 3.067.12.08.12.187.08.387l-.386 1.453c0 .227-.147.307-.374.147C8.667 20 7.68 17.573 7.68 15.613c0-4.213 2.987-8.04 8.747-8.04 4.586 0 8.16 3.294 8.16 7.667 0 4.587-2.84 8.267-6.907 8.267-1.293 0-2.56-.694-3.013-1.507l-.894 3.16c-.306 1.147-1.146 2.68-1.72 3.6v-.04z"/></svg>