<?xml version="1.0" encoding="utf-8"?><svg width="50" height="50" fill="none" xmlns="http://www.w3.org/2000/svg" viewBox="0 0 50 50"><rect width="50" height="50" rx="4" fill="#F3F1E1"/><path d="M33.3 16.446l-7.245-4.61V8.054a1.055 1.055 0 00-2.11 0v3.78L16.7 16.446a1.055 1.055 0 00-.488.89v24.61c0 .582.472 1.054 1.055 1.054h15.468c.583 0 1.055-.472 1.055-1.055v-24.61c0-.36-.184-.695-.488-.889zm-8.3 7.85a3.52 3.52 0 01-3.516-3.515 3.522 3.522 0 012.461-3.354v.893a1.055 1.055 0 102.11 0v-.893a3.522 3.522 0 012.46 3.354A3.52 3.52 0 0125 24.297z" fill="#F2BE22"/></svg>