<?xml version="1.0" encoding="utf-8"?><svg width="50" height="50" fill="none" xmlns="http://www.w3.org/2000/svg" viewBox="0 0 50 50"><rect width="50" height="50" rx="4" fill="#E3E6EE"/><path d="M38.404 14.061a3.058 3.058 0 00-.35-.889S34.15 7 23.999 7C13.851 7 9.945 13.172 9.945 13.172a3.038 3.038 0 00-.35.89s-.756 4.002.494 9.74c1.15 5.274 4.33 12.834 12.965 18.898a1.642 1.642 0 001.892 0c8.632-6.064 11.813-13.624 12.963-18.899 1.253-5.737.495-9.74.495-9.74zm-3.822 9.015c-.032.151-.072.309-.11.464H24v15.634c-6.736-5.113-9.42-11.195-10.474-15.634H24V10.405c7.228 0 10.447 3.64 11.085 4.469.105.764.434 3.916-.502 8.202z" fill="#6276AA"/></svg>