<?xml version="1.0" encoding="utf-8"?><svg width="32" height="32" xmlns="http://www.w3.org/2000/svg" viewBox="0 0 32 32"><path d="M24 8c2.76 2.72 3.8 6.52 3.147 10.067.546.96.853 2.08.853 3.266A6.667 6.667 0 0121.333 28a6.59 6.59 0 01-3.266-.853C14.52 27.8 10.72 26.76 8 24c-2.76-2.72-3.8-6.52-3.147-10.067A6.59 6.59 0 014 10.667 6.667 6.667 0 0110.667 4a6.59 6.59 0 013.266.853C17.48 4.2 21.28 5.24 24 8zm-7.947 14.88c3.827 0 5.734-1.84 5.734-4.32 0-1.587-.747-3.28-3.64-3.933l-2.654-.587c-1.013-.227-2.16-.533-2.16-1.48 0-.96.8-1.627 2.267-1.627 2.973 0 2.693 2.04 4.173 2.04.774 0 1.44-.453 1.44-1.24 0-1.826-2.92-3.2-5.4-3.2-2.68 0-5.546 1.147-5.546 4.187 0 1.467.52 3.027 3.4 3.747l3.586.906c1.08.267 1.347.867 1.347 1.427 0 .907-.907 1.8-2.547 1.8-3.213 0-2.773-2.467-4.493-2.467-.773 0-1.333.534-1.333 1.294 0 1.48 1.773 3.453 5.826 3.453z"/></svg>