<?xml version="1.0" encoding="utf-8"?><svg width="32" height="32" xmlns="http://www.w3.org/2000/svg" viewBox="0 0 32 32"><path d="M16 2.667C8.64 2.667 2.667 8.64 2.667 16S8.64 29.333 16 29.333 29.333 23.36 29.333 16 23.36 2.667 16 2.667zm6.187 9.066c-.2 2.107-1.067 7.227-1.507 9.587-.187 1-.56 1.333-.907 1.373-.773.067-1.36-.506-2.106-1-1.174-.773-1.84-1.253-2.974-2-1.32-.866-.466-1.346.294-2.12.2-.2 3.613-3.306 3.68-3.586a.267.267 0 00-.067-.24c-.08-.067-.187-.04-.28-.027-.12.027-1.987 1.267-5.627 3.72-.533.36-1.013.547-1.44.533-.48-.013-1.386-.266-2.066-.493-.84-.267-1.494-.413-1.44-.88.026-.24.36-.48.986-.733 3.894-1.694 6.48-2.814 7.774-3.347 3.706-1.547 4.466-1.813 4.973-1.813.107 0 .36.026.52.16a.53.53 0 01.187.36c-.014.08.013.32 0 .506z"/></svg>