<?xml version="1.0" encoding="utf-8"?><svg width="32" height="32" xmlns="http://www.w3.org/2000/svg" viewBox="0 0 32 32"><path d="M16.36 3C8.981 3 3 8.98 3 16.36c0 7.378 5.981 13.36 13.36 13.36s13.36-5.982 13.36-13.36C29.72 8.98 23.739 3 16.36 3zm5.138 15.073s1.182 1.166 1.472 1.707c.009.012.013.023.016.028.118.2.146.354.087.47-.097.191-.431.286-.545.294H20.44c-.144 0-.448-.037-.815-.29-.283-.198-.561-.522-.832-.838-.405-.47-.756-.877-1.11-.877a.427.427 0 00-.132.02c-.267.087-.61.468-.61 1.484 0 .318-.25.5-.426.5h-.957c-.325 0-2.022-.114-3.525-1.7-1.84-1.94-3.496-5.834-3.51-5.87-.104-.253.112-.388.347-.388h2.108c.281 0 .373.172.437.323.076.177.351.88.803 1.67.734 1.289 1.183 1.812 1.544 1.812a.418.418 0 00.193-.05c.47-.261.383-1.938.362-2.286 0-.066-.001-.75-.242-1.079-.173-.238-.466-.328-.644-.362.072-.1.167-.18.277-.235.322-.161.904-.185 1.482-.185h.321c.626.008.788.049 1.015.106.459.11.469.406.428 1.42-.012.289-.025.614-.025.998 0 .084-.004.173-.004.268-.014.516-.03 1.102.334 1.343a.3.3 0 00.159.045c.126 0 .508 0 1.54-1.771.319-.57.595-1.163.828-1.773.021-.036.082-.148.155-.19a.37.37 0 01.172-.041h2.479c.27 0 .455.04.49.145.061.165-.011.67-1.143 2.203l-.505.666c-1.026 1.345-1.026 1.413.064 2.433z"/></svg>