<?xml version="1.0" encoding="utf-8"?><svg viewBox="0 0 50 50" xmlns="http://www.w3.org/2000/svg" xmlns:xlink="http://www.w3.org/1999/xlink"><style>:root>svg{display:none}:root>svg:target{display:block}</style><svg fill="none" viewBox="0 0 16 9" id="arrowDown" xmlns="http://www.w3.org/2000/svg"><path d="M14.248.657L8 6.747 1.752.657a.598.598 0 00-.96.186.569.569 0 00.125.627l6.647 6.48a.625.625 0 00.872 0l6.646-6.479a.568.568 0 000-.815.598.598 0 00-.835 0v.001z" fill="#FDFDFD"/></svg><svg viewBox="0 0 6 10" id="arrowList" xmlns="http://www.w3.org/2000/svg"><path d="M5.715 4.61L1.265.16A.543.543 0 00.878 0a.543.543 0 00-.386.16L.164.487a.548.548 0 000 .774L3.9 4.998.16 8.739a.543.543 0 00-.16.387c0 .146.057.284.16.387l.327.327c.103.103.24.16.387.16a.543.543 0 00.387-.16l4.454-4.454a.544.544 0 00.16-.388.544.544 0 00-.16-.388z"/></svg><svg viewBox="0 0 24 24" id="close" xmlns="http://www.w3.org/2000/svg"><path d="M6.4 19L5 17.6l5.6-5.6L5 6.4 6.4 5l5.6 5.6L17.6 5 19 6.4 13.4 12l5.6 5.6-1.4 1.4-5.6-5.6L6.4 19z"/></svg><svg fill="none" viewBox="0 0 18 18" id="date" xmlns="http://www.w3.org/2000/svg"><g clip-path="url(#dclip0_1_196)" fill="#FDFDFD"><path d="M16.313 18H1.688A1.685 1.685 0 010 16.312v-13.5c0-.933.754-1.687 1.688-1.687h14.624c.934 0 1.688.754 1.688 1.688v13.5c0 .933-.754 1.687-1.688 1.687zM1.688 2.25a.557.557 0 00-.563.563v13.5c0 .315.248.562.563.562h14.624a.557.557 0 00.563-.563v-13.5a.557.557 0 00-.563-.562H1.688z"/><path d="M5.063 4.5a.557.557 0 01-.563-.563V.563C4.5.247 4.747 0 5.063 0c.315 0 .562.247.562.563v3.375a.557.557 0 01-.563.562zm7.875 0a.557.557 0 01-.563-.563V.563c0-.315.248-.563.563-.563.314 0 .562.247.562.563v3.375a.557.557 0 01-.563.562zm4.5 2.25H.563A.557.557 0 010 6.187c0-.315.247-.562.563-.562h16.875c.315 0 .562.247.562.563a.557.557 0 01-.563.562z"/></g><defs><clipPath id="dclip0_1_196"><path fill="#fff" d="M0 0h18v18H0z"/></clipPath></defs></svg><svg fill="none" viewBox="0 0 50 50" id="guide" xmlns="http://www.w3.org/2000/svg"><rect width="50" height="50" rx="4" fill="#E5EEEB"/><g clip-path="url(#eclip0_1_35)" fill="#45766A"><path d="M19.035 31.928h3.643v.302h-3.643v-.302zm16.004 0H43v.302h-7.96v-.302zm-.194-11.05c.331.456.599.857.812 1.213.069-1.146.267-1.845.464-2.247V23c.102.26.175.532.18.818 0 .204-.04.39-.12.558a1.058 1.058 0 01-.06.11v5.902a.87.87 0 001.738 0v-6.347h.326v6.346a.87.87 0 101.739 0v-7.1c-1.983-2.13-3.34-4.48-3.667-5.072-.062.021-.128.048-.196.082-.378.188-.786.598-1.071 1.325-.12.303-.224.663-.304 1.094a.8.8 0 01.159.162zm-.336 2.459l.002.06.032.006a5.215 5.215 0 00-.034-.066z"/><path d="M37.438 19.693a26.528 26.528 0 002.486 3.238v-3.085c.041.085.083.183.125.297.198.55.365 1.451.364 2.857 0 .388-.012.814-.04 1.282a.563.563 0 101.123.066c.027-.449.041-.898.042-1.348-.003-2.121-.342-3.296-.804-4.002-.23-.35-.501-.575-.75-.7a1.335 1.335 0 00-.594-.15h-.002l-.008-.001h-2.716l-.01.001c-.051 0-.102.004-.152.011.156.279.476.832.936 1.534zM38.022 17.746a1.582 1.582 0 100-3.164 1.582 1.582 0 000 3.164zM11.765 25.877v14.145a1.495 1.495 0 102.992 0v-10.92h.56v10.92a1.495 1.495 0 102.992 0v-18.14c.08.167.152.338.215.513.34.945.628 2.495.627 4.916 0 .667-.022 1.4-.069 2.204a.968.968 0 001.933.113c.049-.839.071-1.609.071-2.317-.005-3.651-.588-5.672-1.383-6.887-.397-.603-.862-.99-1.292-1.204a2.305 2.305 0 00-1-.258l-.037-.002h-.568l-.297 2.324-1.18-1.42.816-.904h-2.216l.816.903-1.18 1.421-.297-2.324H12.7a.922.922 0 00-.107.006c-.428.006-.868.03-1.295.042-.12.004-.24.007-.358.006-.691.008-1.29-.09-1.568-.263a.718.718 0 01-.296-.298c-.072-.135-.14-.355-.14-.729-.001-.403.085-.975.313-1.722a.968.968 0 00-.644-1.207c-.007-.003-.013-.004-.02-.005v-2.522c.265-.424.94-1.182 2.117-.48 3.192 1.903 3.387-2.54 3.387-2.54s-1.673.928-2.883-.16c-1.024-.922-2.264-.4-2.62-.217v-.389h-.444v6.288a.968.968 0 00-.745.668c-.265.875-.396 1.62-.397 2.286 0 .61.116 1.164.366 1.637.376.718 1.042 1.149 1.676 1.346.642.205 1.288.24 1.898.243l.1-.001c.25-.003.494-.01.725-.02v4.948z"/><path d="M15.48 18.234a2.722 2.722 0 10-.887-5.371 2.722 2.722 0 00.888 5.37zm13.743 5.883c-.122-1.217-.395-1.992-.735-2.512-.23-.35-.5-.575-.75-.7a1.332 1.332 0 00-.594-.15h-.494a10.662 10.662 0 01.24 3.327v1.291h-2.227v-1.29a10.658 10.658 0 01.24-3.33h-.485l-.01.002c-.124 0-.344.024-.593.15-.378.188-.786.598-1.07 1.325-.29.73-.483 1.785-.485 3.378 0 .412.014.86.043 1.347a.563.563 0 00.56.53l.034-.002a.562.562 0 00.529-.594c-.026-.427-.04-.854-.04-1.281-.003-1.703.245-2.658.49-3.157v10.545a.87.87 0 101.738 0v-6.347h.326v6.347a.87.87 0 001.738 0V22.453c.042.085.084.183.125.298.199.55.365 1.45.365 2.857 0 .387-.013.814-.04 1.281a.56.56 0 00.247.497c.056-1.048.213-1.89.476-2.556.112-.286.24-.52.372-.713z"/><path d="M24.834 23.188c0 .322.015.588.031.78h1.823a10.449 10.449 0 00-.255-3.213H25.12c-.225.93-.286 1.792-.286 2.433zM25.776 20.354a1.582 1.582 0 100-3.164 1.582 1.582 0 000 3.164zM25.775 25.104a.395.395 0 100-.791.395.395 0 000 .79zM31.288 20.625h2.162a1.58 1.58 0 00-2.924.835 1.582 1.582 0 002.956.782h-2.194v-1.617z"/><path d="M32.636 21.867a.434.434 0 100-.867.434.434 0 000 .867z"/><path d="M36.059 23.823c-.005-.361-.13-.706-.354-1.15-.226-.442-.566-.978-1.056-1.652a.563.563 0 00-.91.661c.469.644.78 1.14.965 1.503.119.227.18.403.21.514a3.841 3.841 0 01-.665-.113c-.134-.03-.268-.063-.398-.09a2.326 2.326 0 00-.33-.048c-.017-.002-.036-.005-.054-.005H30.74c-.125 0-.343.025-.593.15-.378.188-.786.599-1.071 1.325-.289.73-.483 1.785-.483 3.378 0 .412.013.86.041 1.347a.562.562 0 101.123-.065c-.025-.427-.039-.854-.04-1.282-.002-1.703.246-2.657.49-3.157v10.545a.87.87 0 101.739 0v-6.346h.325v6.346a.87.87 0 001.74 0V24.686l.204.045c.229.048.472.092.73.093.216-.003.461-.025.713-.193a.904.904 0 00.305-.357 1.05 1.05 0 00.096-.451z"/></g><defs><clipPath id="eclip0_1_35"><path fill="#fff" transform="translate(7 7)" d="M0 0h36v36H0z"/></clipPath></defs></svg><svg fill="none" viewBox="0 0 22 18" id="menu" xmlns="http://www.w3.org/2000/svg"><path fill-rule="evenodd" clip-rule="evenodd" d="M.5 1.5A1.5 1.5 0 012 0h18a1.5 1.5 0 010 3H2A1.5 1.5 0 01.5 1.5zM.5 9A1.5 1.5 0 012 7.5h18a1.5 1.5 0 010 3H2A1.5 1.5 0 01.5 9zm9 7.5A1.5 1.5 0 0111 15h9a1.5 1.5 0 110 3h-9a1.5 1.5 0 01-1.5-1.5z" fill="#fff"/></svg><svg viewBox="0 0 32 32" id="pinterest" xmlns="http://www.w3.org/2000/svg"><path d="M12.053 28.72c1.28.387 2.574.613 3.947.613A13.333 13.333 0 102.667 16c0 5.667 3.56 10.533 8.586 12.453-.12-1.04-.24-2.76 0-3.946l1.534-6.587s-.387-.773-.387-2c0-1.84 1.147-3.213 2.453-3.213 1.147 0 1.68.84 1.68 1.92 0 1.146-.76 2.786-1.146 4.36-.227 1.306.693 2.453 2.026 2.453 2.374 0 4.214-2.533 4.214-6.107 0-3.2-2.294-5.386-5.587-5.386-3.76 0-5.973 2.8-5.973 5.746 0 1.147.373 2.307.986 3.067.12.08.12.187.08.387l-.386 1.453c0 .227-.147.307-.374.147C8.667 20 7.68 17.573 7.68 15.613c0-4.213 2.987-8.04 8.747-8.04 4.586 0 8.16 3.294 8.16 7.667 0 4.587-2.84 8.267-6.907 8.267-1.293 0-2.56-.694-3.013-1.507l-.894 3.16c-.306 1.147-1.146 2.68-1.72 3.6v-.04z"/></svg><svg fill="none" viewBox="0 0 22 22" id="play" xmlns="http://www.w3.org/2000/svg"><path d="M8.243 3.656A1.833 1.833 0 005.5 5.247v11.508a1.833 1.833 0 002.743 1.591l10.068-5.755a1.834 1.834 0 000-3.182L8.243 3.656z" fill="#1A3E3E"/></svg><svg fill="none" viewBox="0 0 50 50" id="price" xmlns="http://www.w3.org/2000/svg"><rect width="50" height="50" rx="4" fill="#F3F1E1"/><path d="M33.3 16.446l-7.245-4.61V8.054a1.055 1.055 0 00-2.11 0v3.78L16.7 16.446a1.055 1.055 0 00-.488.89v24.61c0 .582.472 1.054 1.055 1.054h15.468c.583 0 1.055-.472 1.055-1.055v-24.61c0-.36-.184-.695-.488-.889zm-8.3 7.85a3.52 3.52 0 01-3.516-3.515 3.522 3.522 0 012.461-3.354v.893a1.055 1.055 0 102.11 0v-.893a3.522 3.522 0 012.46 3.354A3.52 3.52 0 0125 24.297z" fill="#F2BE22"/></svg><svg fill="none" viewBox="0 0 50 50" id="safety" xmlns="http://www.w3.org/2000/svg"><rect width="50" height="50" rx="4" fill="#E3E6EE"/><path d="M38.404 14.061a3.058 3.058 0 00-.35-.889S34.15 7 23.999 7C13.851 7 9.945 13.172 9.945 13.172a3.038 3.038 0 00-.35.89s-.756 4.002.494 9.74c1.15 5.274 4.33 12.834 12.965 18.898a1.642 1.642 0 001.892 0c8.632-6.064 11.813-13.624 12.963-18.899 1.253-5.737.495-9.74.495-9.74zm-3.822 9.015c-.032.151-.072.309-.11.464H24v15.634c-6.736-5.113-9.42-11.195-10.474-15.634H24V10.405c7.228 0 10.447 3.64 11.085 4.469.105.764.434 3.916-.502 8.202z" fill="#6276AA"/></svg><svg viewBox="0 0 32 32" id="skype" xmlns="http://www.w3.org/2000/svg"><path d="M24 8c2.76 2.72 3.8 6.52 3.147 10.067.546.96.853 2.08.853 3.266A6.667 6.667 0 0121.333 28a6.59 6.59 0 01-3.266-.853C14.52 27.8 10.72 26.76 8 24c-2.76-2.72-3.8-6.52-3.147-10.067A6.59 6.59 0 014 10.667 6.667 6.667 0 0110.667 4a6.59 6.59 0 013.266.853C17.48 4.2 21.28 5.24 24 8zm-7.947 14.88c3.827 0 5.734-1.84 5.734-4.32 0-1.587-.747-3.28-3.64-3.933l-2.654-.587c-1.013-.227-2.16-.533-2.16-1.48 0-.96.8-1.627 2.267-1.627 2.973 0 2.693 2.04 4.173 2.04.774 0 1.44-.453 1.44-1.24 0-1.826-2.92-3.2-5.4-3.2-2.68 0-5.546 1.147-5.546 4.187 0 1.467.52 3.027 3.4 3.747l3.586.906c1.08.267 1.347.867 1.347 1.427 0 .907-.907 1.8-2.547 1.8-3.213 0-2.773-2.467-4.493-2.467-.773 0-1.333.534-1.333 1.294 0 1.48 1.773 3.453 5.826 3.453z"/></svg><svg fill="none" viewBox="0 0 24 24" id="star" xmlns="http://www.w3.org/2000/svg"><path d="M12 17.27l4.15 2.51c.76.46 1.69-.22 1.49-1.08l-1.1-4.72 3.67-3.18c.67-.58.31-1.68-.57-1.75l-4.83-.41-1.89-4.46c-.34-.81-1.5-.81-1.84 0L9.19 8.63l-4.83.41c-.88.07-1.24 1.17-.57 1.75l3.67 3.18-1.1 4.72c-.2.86.73 1.54 1.49 1.08l4.15-2.5z" fill="#F2BE22"/></svg><svg viewBox="0 0 32 32" id="telegram" xmlns="http://www.w3.org/2000/svg"><path d="M16 2.667C8.64 2.667 2.667 8.64 2.667 16S8.64 29.333 16 29.333 29.333 23.36 29.333 16 23.36 2.667 16 2.667zm6.187 9.066c-.2 2.107-1.067 7.227-1.507 9.587-.187 1-.56 1.333-.907 1.373-.773.067-1.36-.506-2.106-1-1.174-.773-1.84-1.253-2.974-2-1.32-.866-.466-1.346.294-2.12.2-.2 3.613-3.306 3.68-3.586a.267.267 0 00-.067-.24c-.08-.067-.187-.04-.28-.027-.12.027-1.987 1.267-5.627 3.72-.533.36-1.013.547-1.44.533-.48-.013-1.386-.266-2.066-.493-.84-.267-1.494-.413-1.44-.88.026-.24.36-.48.986-.733 3.894-1.694 6.48-2.814 7.774-3.347 3.706-1.547 4.466-1.813 4.973-1.813.107 0 .36.026.52.16a.53.53 0 01.187.36c-.014.08.013.32 0 .506z"/></svg><svg viewBox="0 0 32 32" id="vk" xmlns="http://www.w3.org/2000/svg"><path d="M16.36 3C8.981 3 3 8.98 3 16.36c0 7.378 5.981 13.36 13.36 13.36s13.36-5.982 13.36-13.36C29.72 8.98 23.739 3 16.36 3zm5.138 15.073s1.182 1.166 1.472 1.707c.009.012.013.023.016.028.118.2.146.354.087.47-.097.191-.431.286-.545.294H20.44c-.144 0-.448-.037-.815-.29-.283-.198-.561-.522-.832-.838-.405-.47-.756-.877-1.11-.877a.427.427 0 00-.132.02c-.267.087-.61.468-.61 1.484 0 .318-.25.5-.426.5h-.957c-.325 0-2.022-.114-3.525-1.7-1.84-1.94-3.496-5.834-3.51-5.87-.104-.253.112-.388.347-.388h2.108c.281 0 .373.172.437.323.076.177.351.88.803 1.67.734 1.289 1.183 1.812 1.544 1.812a.418.418 0 00.193-.05c.47-.261.383-1.938.362-2.286 0-.066-.001-.75-.242-1.079-.173-.238-.466-.328-.644-.362.072-.1.167-.18.277-.235.322-.161.904-.185 1.482-.185h.321c.626.008.788.049 1.015.106.459.11.469.406.428 1.42-.012.289-.025.614-.025.998 0 .084-.004.173-.004.268-.014.516-.03 1.102.334 1.343a.3.3 0 00.159.045c.126 0 .508 0 1.54-1.771.319-.57.595-1.163.828-1.773.021-.036.082-.148.155-.19a.37.37 0 01.172-.041h2.479c.27 0 .455.04.49.145.061.165-.011.67-1.143 2.203l-.505.666c-1.026 1.345-1.026 1.413.064 2.433z"/></svg><svg fill="none" viewBox="0 0 24 24" id="zoom" xmlns="http://www.w3.org/2000/svg"><path d="M21 21l-4.343-4.343m0 0A8 8 0 105.344 5.344a8 8 0 0011.313 11.313zM11 8v6m-3-3h6" stroke="#fff" stroke-width="1.5" stroke-linecap="round" stroke-linejoin="round"/></svg></svg>