<svg width="20" height="20" viewBox="0 0 20 20" fill="none" xmlns="http://www.w3.org/2000/svg">
<path d="M3.7525 13.3426L10 7.2526L16.2475 13.3426C16.3591 13.4516 16.509 13.5127 16.665 13.5127C16.821 13.5127 16.9709 13.4516 17.0825 13.3426C17.1365 13.2896 17.1795 13.2264 17.2088 13.1567C17.2381 13.0869 17.2532 13.012 17.2532 12.9363C17.2532 12.8607 17.2381 12.7858 17.2088 12.716C17.1795 12.6463 17.1365 12.5831 17.0825 12.5301L10.4362 6.0501C10.3195 5.93633 10.163 5.87266 10 5.87266C9.83701 5.87266 9.68047 5.93633 9.56375 6.0501L2.9175 12.5288C2.86307 12.5818 2.81981 12.6452 2.79027 12.7152C2.76073 12.7852 2.74551 12.8604 2.74551 12.9363C2.74551 13.0123 2.76073 13.0875 2.79027 13.1575C2.81981 13.2275 2.86307 13.2909 2.9175 13.3439C3.02912 13.4529 3.17897 13.5139 3.335 13.5139C3.49103 13.5139 3.64088 13.4529 3.7525 13.3439V13.3426Z" fill="#FDFDFD"/>
</svg>
