<svg width="22" height="22" viewBox="0 0 22 22" fill="none" xmlns="http://www.w3.org/2000/svg">
<path d="M8.24267 3.65572C7.96389 3.49647 7.64819 3.41323 7.32714 3.41432C7.00609 3.4154 6.69096 3.50078 6.41326 3.6619C6.13557 3.82302 5.90506 4.05424 5.74479 4.33242C5.58451 4.6106 5.5001 4.926 5.5 5.24705V16.7549C5.5001 17.0759 5.58451 17.3913 5.74479 17.6695C5.90506 17.9477 6.13557 18.1789 6.41326 18.34C6.69096 18.5012 7.00609 18.5865 7.32714 18.5876C7.64819 18.5887 7.96389 18.5055 8.24267 18.3462L18.3113 12.5914C18.5917 12.431 18.8248 12.1993 18.9869 11.9199C19.1489 11.6404 19.2343 11.3231 19.2343 11C19.2343 10.677 19.1489 10.3597 18.9869 10.0802C18.8248 9.80079 18.5917 9.56913 18.3113 9.40872L8.24267 3.65572Z" fill="#1A3E3E"/>
</svg>
