<svg width="32" height="32" viewBox="0 0 32 32" fill="none" xmlns="http://www.w3.org/2000/svg">
<path d="M24 8C26.76 10.72 27.8 14.52 27.1467 18.0667C27.6933 19.0267 28 20.1467 28 21.3333C28 23.1014 27.2976 24.7971 26.0474 26.0474C24.7971 27.2976 23.1014 28 21.3333 28C20.1467 28 19.0267 27.6933 18.0667 27.1467C14.52 27.8 10.72 26.76 8 24C5.24 21.28 4.2 17.48 4.85333 13.9333C4.30667 12.9733 4 11.8533 4 10.6667C4 8.89856 4.70238 7.20286 5.95262 5.95262C7.20286 4.70238 8.89856 4 10.6667 4C11.8533 4 12.9733 4.30667 13.9333 4.85333C17.48 4.2 21.28 5.24 24 8ZM16.0533 22.88C19.88 22.88 21.7867 21.04 21.7867 18.56C21.7867 16.9733 21.04 15.28 18.1467 14.6267L15.4933 14.04C14.48 13.8133 13.3333 13.5067 13.3333 12.56C13.3333 11.6 14.1333 10.9333 15.6 10.9333C18.5733 10.9333 18.2933 12.9733 19.7733 12.9733C20.5467 12.9733 21.2133 12.52 21.2133 11.7333C21.2133 9.90667 18.2933 8.53333 15.8133 8.53333C13.1333 8.53333 10.2667 9.68 10.2667 12.72C10.2667 14.1867 10.7867 15.7467 13.6667 16.4667L17.2533 17.3733C18.3333 17.64 18.6 18.24 18.6 18.8C18.6 19.7067 17.6933 20.6 16.0533 20.6C12.84 20.6 13.28 18.1333 11.56 18.1333C10.7867 18.1333 10.2267 18.6667 10.2267 19.4267C10.2267 20.9067 12 22.88 16.0533 22.88Z" fill="white"/>
</svg>
