<svg width="32" height="32" viewBox="0 0 32 32" fill="none" xmlns="http://www.w3.org/2000/svg">
<path d="M16.36 2.99976C8.98138 2.99976 3 8.98114 3 16.3598C3 23.7384 8.98138 29.7198 16.36 29.7198C23.7386 29.7198 29.72 23.7384 29.72 16.3598C29.72 8.98114 23.7386 2.99976 16.36 2.99976ZM21.498 18.0729C21.498 18.0729 22.6796 19.2391 22.9704 19.7805C22.9788 19.7916 22.9829 19.8027 22.9857 19.8083C23.104 20.0073 23.1318 20.1618 23.0734 20.2773C22.976 20.4693 22.642 20.564 22.5279 20.5723H20.4404C20.2956 20.5723 19.9922 20.5348 19.6248 20.2815C19.3423 20.0839 19.064 19.7596 18.7926 19.4437C18.3877 18.9733 18.037 18.5669 17.6835 18.5669C17.6386 18.5669 17.594 18.5739 17.5513 18.5878C17.2841 18.6741 16.9417 19.0554 16.9417 20.0713C16.9417 20.3886 16.6912 20.5709 16.5145 20.5709H15.5584C15.2327 20.5709 13.5363 20.4568 12.0333 18.8717C10.1935 16.9303 8.53744 13.0365 8.52352 13.0003C8.41915 12.7484 8.63486 12.6134 8.87005 12.6134H10.9784C11.2595 12.6134 11.3514 12.7846 11.4154 12.9363C11.4906 13.113 11.7661 13.8158 12.2184 14.6063C12.9518 15.8949 13.4013 16.4182 13.7618 16.4182C13.8293 16.4174 13.8957 16.4002 13.9552 16.3681C14.4256 16.1065 14.3379 14.4295 14.317 14.0816C14.317 14.0162 14.3156 13.3315 14.0749 13.0031C13.9023 12.7651 13.6087 12.6746 13.4305 12.6412C13.5026 12.5417 13.5976 12.4611 13.7075 12.406C14.0303 12.2446 14.6121 12.2209 15.1896 12.2209H15.5111C16.1373 12.2293 16.2988 12.2696 16.5256 12.3267C16.9849 12.4366 16.9946 12.7331 16.9542 13.7476C16.9417 14.0357 16.9292 14.3613 16.9292 14.7454C16.9292 14.8289 16.925 14.918 16.925 15.0126C16.9111 15.5289 16.8944 16.1148 17.259 16.3556C17.3066 16.3854 17.3615 16.4013 17.4177 16.4015C17.5443 16.4015 17.9256 16.4015 18.9582 14.6299C19.2767 14.0597 19.5534 13.4671 19.7863 12.8569C19.8072 12.8207 19.8684 12.7094 19.9408 12.6663C19.9942 12.639 20.0534 12.6252 20.1133 12.6259H22.5919C22.8619 12.6259 23.047 12.6663 23.0817 12.7706C23.143 12.9363 23.0706 13.4414 21.9392 14.9737L21.434 15.6403C20.4084 16.9846 20.4084 17.0528 21.498 18.0729Z" fill="white"/>
</svg>
