<svg width="24" height="24" viewBox="0 0 24 24" fill="none" xmlns="http://www.w3.org/2000/svg">
<path d="M21 21L16.657 16.657M16.657 16.657C17.3999 15.9141 17.9892 15.0321 18.3912 14.0615C18.7933 13.0909 19.0002 12.0506 19.0002 11C19.0002 9.94936 18.7933 8.90905 18.3912 7.93842C17.9892 6.96779 17.3999 6.08585 16.657 5.34296C15.9141 4.60007 15.0322 4.01078 14.0615 3.60874C13.0909 3.20669 12.0506 2.99976 11 2.99976C9.94939 2.99976 8.90908 3.20669 7.93845 3.60874C6.96782 4.01078 6.08588 4.60007 5.34299 5.34296C3.84266 6.84329 2.99979 8.87818 2.99979 11C2.99979 13.1217 3.84266 15.1566 5.34299 16.657C6.84332 18.1573 8.87821 19.0002 11 19.0002C13.1218 19.0002 15.1567 18.1573 16.657 16.657ZM11 7.99996V14M7.99999 11H14" stroke="white" stroke-width="1.5" stroke-linecap="round" stroke-linejoin="round"/>
</svg>
