<svg width="50" height="50" viewBox="0 0 50 50" fill="none" xmlns="http://www.w3.org/2000/svg">
<rect width="50" height="50" rx="4" fill="#F3F1E1"/>
<path d="M33.3006 16.4461L26.0547 11.8351V8.05469C26.0547 7.47222 25.5825 7 25 7C24.4175 7 23.9453 7.47222 23.9453 8.05469V11.8351L16.6994 16.4461C16.5497 16.5414 16.4265 16.6729 16.3411 16.8284C16.2557 16.9839 16.2109 17.1585 16.2109 17.3359V41.9453C16.2109 42.5278 16.6832 43 17.2656 43H32.7344C33.3168 43 33.7891 42.5278 33.7891 41.9453V17.3359C33.7891 16.9754 33.6048 16.6398 33.3006 16.4461ZM25 24.2969C23.0615 24.2969 21.4844 22.7198 21.4844 20.7812C21.4844 19.21 22.5205 17.8765 23.9453 17.4275V18.3203C23.9453 18.9028 24.4175 19.375 25 19.375C25.5825 19.375 26.0547 18.9028 26.0547 18.3203V17.4275C27.4795 17.8765 28.5156 19.21 28.5156 20.7812C28.5156 22.7198 26.9385 24.2969 25 24.2969Z" fill="#F2BE22"/>
</svg>
